<?xml version="1.0" encoding="UTF-8"?>
<svg id="_圖層_1" data-name="圖層_1" xmlns="http://www.w3.org/2000/svg" version="1.1" viewBox="0 0 640 640">
  <!-- Generator: Adobe Illustrator 29.8.2, SVG Export Plug-In . SVG Version: 2.1.1 Build 3)  -->
  <defs>
    <style>
      .st0 {
        fill: #d8141f;
      }
    </style>
  </defs>
  <path class="st0" d="M320,128c106,0,192,86,192,192s-86,192-192,192c-65.2,0-122.9-32.5-157.6-82.3-10.1-14.5-30.1-18-44.6-7.9-14.5,10.1-18,30.1-7.9,44.6,46.2,66.2,123.1,109.6,210.1,109.6,141.4,0,256-114.6,256-256S461.4,64,320,64c-85.7,0-161.5,42.1-208,106.7v-26.7c0-17.7-14.3-32-32-32s-32,14.3-32,32v112c0,17.7,14.3,32,32,32h112.1c17.7,0,32-14.3,32-32s-14.3-32-32-32h-38.3c33.1-57.4,95.2-96,166.2-96ZM344,216c0-13.3-10.7-24-24-24s-24,10.7-24,24v104c0,6.4,2.5,12.5,7,17l72,72c9.4,9.4,24.6,9.4,33.9,0,9.3-9.4,9.4-24.6,0-33.9l-65-65v-94.1h.1Z"/>
</svg>